<?xml version="1.0" encoding="UTF-8"?>
<svg viewBox="0 0 64 64" xmlns="http://www.w3.org/2000/svg">
  <!-- Background Circle -->
  <circle cx="32" cy="32" r="30" fill="#1e8c5e" />
  
  <!-- Simplified Document Icons -->
  <rect x="15" y="18" width="14" height="20" rx="2" fill="#f5f5f5" />
  <rect x="18" y="22" width="8" height="2" rx="1" fill="#d64045" />
  <rect x="18" y="26" width="8" height="1" rx="0.5" fill="#333" />
  <rect x="18" y="29" width="8" height="1" rx="0.5" fill="#333" />
  <text x="22" y="35" font-family="Arial" font-size="4" font-weight="bold" fill="#d64045" text-anchor="middle">PDF</text>
  
  <!-- Flip Arrow -->
  <path d="M33,28 C35,25 37,31 39,28" stroke="#f5f5f5" stroke-width="2" fill="none" stroke-linecap="round" />
  <polygon points="39,28 42,25 42,31" fill="#f5f5f5" />
  
  <!-- CSV Document -->
  <rect x="35" y="18" width="14" height="20" rx="2" fill="#f5f5f5" />
  <rect x="38" y="22" width="8" height="2" rx="1" fill="#1a6b99" />
  <rect x="38" y="26" width="2.5" height="1.5" rx="0.5" fill="#ddd" />
  <rect x="41" y="26" width="2.5" height="1.5" rx="0.5" fill="#ddd" />
  <rect x="38" y="29" width="2.5" height="1.5" rx="0.5" fill="#ddd" />
  <rect x="41" y="29" width="2.5" height="1.5" rx="0.5" fill="#ddd" />
  <text x="42" y="35" font-family="Arial" font-size="4" font-weight="bold" fill="#1a6b99" text-anchor="middle">CSV</text>
</svg>