<?xml version="1.0" encoding="UTF-8"?>
<svg viewBox="0 0 400 400" xmlns="http://www.w3.org/2000/svg">
  <!-- Background Circle -->
  <circle cx="200" cy="200" r="180" fill="#1e8c5e" />
  
  <!-- Document Shapes -->
  <g>
    <!-- PDF Document -->
    <rect x="100" y="120" width="100" height="140" rx="5" fill="#f5f5f5" />
    <rect x="115" y="140" width="70" height="10" rx="2" fill="#d64045" />
    <rect x="115" y="160" width="70" height="5" rx="2" fill="#333" />
    <rect x="115" y="175" width="70" height="5" rx="2" fill="#333" />
    <rect x="115" y="190" width="70" height="5" rx="2" fill="#333" />
    <rect x="115" y="205" width="40" height="5" rx="2" fill="#333" />
    <path d="M115,230 h20 v-20 h-5 v15 h-15 z" fill="#d64045" />
    <text x="150" y="225" font-family="Arial" font-size="12" font-weight="bold" fill="#d64045">PDF</text>
  </g>
  
  <!-- Flip Arrow -->
  <path d="M210,180 C230,150 250,210 270,180" stroke="#f5f5f5" stroke-width="8" fill="none" stroke-linecap="round" />
  <polygon points="270,180 290,160 290,200" fill="#f5f5f5" />
  
  <!-- CSV/Excel Document -->
  <g>
    <rect x="200" y="120" width="100" height="140" rx="5" fill="#f5f5f5" />
    <rect x="215" y="140" width="70" height="10" rx="2" fill="#1a6b99" />
    <rect x="215" y="160" width="20" height="10" rx="2" fill="#ddd" />
    <rect x="240" y="160" width="20" height="10" rx="2" fill="#ddd" />
    <rect x="265" y="160" width="20" height="10" rx="2" fill="#ddd" />
    <rect x="215" y="175" width="20" height="10" rx="2" fill="#ddd" />
    <rect x="240" y="175" width="20" height="10" rx="2" fill="#ddd" />
    <rect x="265" y="175" width="20" height="10" rx="2" fill="#ddd" />
    <rect x="215" y="190" width="20" height="10" rx="2" fill="#ddd" />
    <rect x="240" y="190" width="20" height="10" rx="2" fill="#ddd" />
    <rect x="265" y="190" width="20" height="10" rx="2" fill="#ddd" />
    <rect x="215" y="205" width="20" height="10" rx="2" fill="#ddd" />
    <rect x="240" y="205" width="20" height="10" rx="2" fill="#ddd" />
    <rect x="265" y="205" width="20" height="10" rx="2" fill="#ddd" />
    <text x="250" y="225" font-family="Arial" font-size="12" font-weight="bold" fill="#1a6b99" text-anchor="middle">CSV</text>
  </g>
  
  <!-- FileFlip Text -->
  <text x="200" y="300" font-family="Arial" font-size="36" font-weight="bold" fill="#ffffff" text-anchor="middle">FileFlip</text>
</svg>